<svg width="100px" height="100px" viewBox="0 0 64 64" fill="none" xmlns="http://www.w3.org/2000/svg">
<path d="M6 25H8V20.702C8 17.128 9.601 13.798 12.391 11.565C14.458 9.911 17.054 9 19.701 9H36.54C37.64 7.776 39.229 7 41 7H57C60.309 7 63 9.691 63 13C63 16.309 60.309 19 57 19H41C39.229 19 37.64 18.224 36.54 17H19.701C18.864 17 18.043 17.288 17.389 17.811C16.506 18.518 15.999 19.571 15.999 20.702V25H25.596C26.728 25 27.837 25.389 28.72 26.096L31.529 28.343C32.059 28.767 32.725 29 33.403 29H40C41.302 29 42.402 29.839 42.816 31H45C46.103 31 47 31.897 47 33H51.52L55.52 28H63V52H55.52L51.52 47H47C47 48.103 46.103 49 45 49H42.816C42.514 49.847 41.847 50.514 41 50.816V54C41 55.654 39.654 57 38 57H6C4.346 57 3 55.654 3 54V50H3.031C1.806 49.088 1 47.641 1 46V30C1 27.243 3.243 25 6 25ZM51 37V35H47V37H51ZM47 39V41H51V39H47ZM61 30H57V50H61V30ZM53 45.649L55 48.149V31.851L53 34.351V45.649ZM51 45V43H47V45H51ZM41 17H57C59.206 17 61 15.206 61 13C61 10.794 59.206 9 57 9H41C38.794 9 37 10.794 37 13C37 15.206 38.794 17 41 17ZM16.141 16.249C17.147 15.443 18.412 15 19.701 15H35.35C35.127 14.373 35 13.702 35 13C35 12.298 35.128 11.627 35.35 11H19.701C17.506 11 15.353 11.755 13.64 13.126C11.327 14.978 10 17.739 10 20.702V25H14V20.702C14 18.96 14.78 17.337 16.141 16.249ZM41 32C41 31.449 40.552 31 40 31H33.403C33.267 31 33.134 30.977 33 30.966V49H40C40.552 49 41 48.551 41 48V32ZM45 33H43V47H45V33ZM5 54C5 54.551 5.448 55 6 55H38C38.552 55 39 54.551 39 54V51H6C5.658 51 5.323 50.965 5 50.899V54ZM3 46C3 47.654 4.346 49 6 49H31V30.382C30.747 30.244 30.506 30.085 30.279 29.904L27.47 27.657C26.941 27.233 26.275 27 25.597 27H6C4.346 27 3 28.346 3 30V46Z" fill="white"/>
<path d="M21 47H5V33H21V47ZM19 35H7V45H19V35Z" fill="white"/>
<path d="M5 29H7V31H5V29Z" fill="white"/>
<path d="M9 29H21V31H9V29Z" fill="white"/>
<path d="M35 33H39V35H35V33Z" fill="white"/>
<path d="M35 37H39V39H35V37Z" fill="white"/>
<path d="M35 41H39V43H35V41Z" fill="white"/>
<path d="M35 45H39V47H35V45Z" fill="white"/>
<path d="M29 47H23V31H29V47ZM27 33H25V45H27V33Z" fill="white"/>
</svg>
