<svg width="120" height="112" viewBox="0 0 120 112" fill="none" xmlns="http://www.w3.org/2000/svg">
<path d="M106.467 53.8392C105.435 54.7229 104.458 55.9601 103.314 54.612C102.201 53.2985 103.592 52.4737 104.259 51.5275C105.754 49.4135 107.257 47.2994 108.668 45.1299C109.165 44.3709 109.617 43.4733 109.718 42.5931C109.85 41.4633 110.035 39.8621 109.416 39.2556C108.8 38.6526 107.051 38.6387 106.092 39.0477C103.992 39.9453 101.926 41.0786 100.122 42.4683C95.5285 46.0171 91.7141 50.3458 88.2823 54.8685C90.2155 56.9721 92.1105 59.0377 94.1689 61.2834C95.8345 59.8278 97.3053 58.5767 98.7378 57.2771C99.468 56.6117 100.209 56.0121 101.161 56.7434C102.1 57.4642 101.829 58.2683 101.255 59.1659C100.949 59.6476 100.907 60.3546 100.904 60.9576C100.88 68.797 100.89 76.6363 100.876 84.4757C100.862 90.6515 96.9888 94.4984 90.8101 94.4984C71.1439 94.4984 51.4777 94.4984 31.8115 94.4984C25.5702 94.4984 21.7628 90.7243 21.7559 84.493C21.742 72.3874 21.7454 60.2818 21.7559 48.1797C21.7593 42.4059 25.605 38.4897 31.4047 38.4654C41.0639 38.4204 50.7232 38.4516 60.3824 38.4412C61.4812 38.4412 62.6356 38.4758 62.6842 39.8898C62.7399 41.4286 61.5333 41.5083 60.3651 41.5083C50.8205 41.5083 41.276 41.5048 31.7315 41.5222C27.2739 41.5291 24.8122 43.9412 24.8052 48.3218C24.7844 58.3515 24.7948 68.3811 24.7913 78.4107C24.7913 79.0172 24.7913 79.6237 25.1634 80.3273C27.1731 77.0695 29.1863 73.8118 31.1926 70.5541C32.3122 68.7381 33.4109 66.9082 34.5479 65.1026C36.7281 61.6334 40.2677 61.6334 42.4061 65.1026C44.7948 68.9737 47.1662 72.8553 49.7009 76.9863C50.8901 75.101 51.9714 73.3855 53.0563 71.6665C55.5007 67.7919 58.8943 67.7573 61.3073 71.5972C65.2016 77.7973 69.0959 83.9974 72.9485 90.2252C73.4944 91.1089 74.0785 91.4867 75.1495 91.4728C80.4694 91.4174 85.7927 91.4659 91.1126 91.4347C95.2851 91.4105 97.7955 88.8909 97.8059 84.7425C97.8233 77.884 97.8094 71.0254 97.8059 64.1634C97.8059 63.6609 97.8059 63.1618 97.8059 62.382C97.2218 62.7875 96.8602 63.0232 96.509 63.2796C94.694 64.6104 92.9763 66.1007 91.0466 67.2374C88.8386 68.5405 87.5243 69.8644 87.3296 72.8033C86.9854 78.0191 81.9436 81.7066 76.3004 81.2006C73.8247 80.9788 71.3386 80.154 69.009 79.2182C66.5264 78.2236 66.3595 75.4857 68.5987 74.0821C70.2468 73.0493 71.0744 71.625 71.5855 69.8332C72.3226 67.2409 73.4214 64.8357 75.9527 63.4494C76.4568 63.1757 77.0271 62.7494 77.5313 62.7979C79.8052 63.0024 80.4798 61.4082 81.3734 59.8278C84.7183 53.9154 89.0055 48.7169 93.8212 43.9412C94.1863 43.5773 94.5966 43.255 95.0104 42.347C93.8039 42.0697 92.5973 41.5707 91.3873 41.5534C85.0834 41.4702 78.7795 41.5083 72.4721 41.5014C71.9541 41.5014 71.3212 41.64 70.9422 41.4009C70.4276 41.0751 69.7879 40.4443 69.7913 39.9488C69.7913 39.4601 70.4415 38.7947 70.9701 38.5417C71.4916 38.2922 72.2148 38.4481 72.8511 38.4481C78.637 38.4481 84.4193 38.4932 90.2051 38.4239C92.8338 38.3927 95.2642 38.8085 97.1105 40.323C100.181 38.7566 103.136 37.3599 105.946 35.7137C106.519 35.3775 106.53 34.0883 106.912 32.8927C105.862 32.8927 105.25 32.8927 104.638 32.8927C97.639 32.8927 90.6397 32.8927 83.6404 32.8927C83.2371 32.8927 82.7294 33.0417 82.4443 32.858C81.808 32.4456 81.2795 31.8668 80.7093 31.3539C81.2934 30.8479 81.8463 29.9607 82.4687 29.9052C84.5931 29.7216 86.742 29.829 88.8838 29.829C94.1481 29.829 99.4123 29.8394 104.673 29.8359C105.236 29.8359 105.803 29.777 106.829 29.7216C106.519 26.2594 106.697 22.7833 105.814 19.5983C104.301 14.1572 99.2872 11.0174 93.3553 11.0208C76.582 11.0278 59.8052 11.0312 43.0319 11.0347C38.404 11.0347 33.776 11.0174 29.1516 11.0278C21.4916 11.0416 16.0396 16.4446 15.984 24.0691C15.9701 25.9059 15.984 27.7392 15.984 29.7389C16.7315 29.7805 17.3435 29.8429 17.952 29.8429C35.0139 29.8429 52.0792 29.8359 69.1411 29.8325C69.6036 29.8325 70.1599 29.68 70.5076 29.8775C71.0883 30.2068 71.9993 30.8444 71.9367 31.2153C71.8358 31.8287 71.1578 32.4768 70.5598 32.8337C70.1321 33.0902 69.4332 32.8961 68.8525 32.8961C51.8463 32.8961 34.84 32.8961 17.8372 32.8961C17.2774 32.8961 16.7176 32.8961 15.9701 32.8961C15.9701 35.1557 15.9596 37.2178 15.9735 39.2799C15.9805 40.3334 15.8484 41.3974 14.5549 41.439C13.1536 41.484 12.9763 40.4062 12.9798 39.266C12.9937 33.9046 12.8998 28.5432 13.0041 23.1853C13.1675 14.8192 19.9826 8.04035 28.3727 8.01262C50.2955 7.95024 72.2148 7.94331 94.1377 8.00915C102.712 8.03341 109.499 14.9093 109.611 23.4522C109.659 27.0842 109.6 30.7162 109.652 34.3448C109.659 34.8923 109.868 35.6548 110.261 35.9494C113.053 38.0426 113.748 39.7131 112.733 43.0713C112.253 44.6517 111.572 46.2112 110.727 47.6356C109.962 48.9283 109.593 50.1794 109.6 51.6835C109.649 63.5014 109.628 75.3159 109.624 87.1338C109.624 96.401 102.848 103.19 93.55 103.197C71.9749 103.211 50.3998 103.221 28.8247 103.194C19.8678 103.183 13.0632 96.5293 13.0041 87.6121C12.9172 74.3559 12.9798 61.0963 12.9798 47.8401C12.9798 47.6079 12.8929 47.2994 13.0076 47.1643C13.4735 46.6236 14.002 46.135 14.5062 45.629C14.9826 46.1038 15.6258 46.5023 15.8866 47.0776C16.13 47.6079 15.9735 48.3218 15.9735 48.956C15.9735 61.5225 15.9735 74.089 15.9735 86.6521C15.9735 94.8865 21.2586 100.206 29.5062 100.213C50.678 100.231 71.8463 100.231 93.018 100.213C101.29 100.206 106.54 94.9246 106.547 86.6764C106.558 76.2447 106.561 65.8096 106.565 55.3779C106.565 54.9378 106.502 54.5011 106.45 53.8322L106.467 53.8392ZM70.1425 91.452C66.0813 84.9747 62.274 78.8682 58.4249 72.786C57.6112 71.5002 56.7663 71.5452 55.9214 72.8553C54.7983 74.5985 53.7378 76.3833 52.6182 78.13C50.8379 80.9095 48.5987 80.9476 46.8671 78.1855C44.4819 74.3767 42.1835 70.5125 39.8018 66.7002C38.8595 65.1892 38.0737 65.2169 37.1383 66.7314C33.2614 73.0043 29.3741 79.2737 25.5806 85.5951C25.219 86.1981 25.1703 87.2932 25.4728 87.924C26.655 90.395 28.7482 91.4694 31.5055 91.4624C43.703 91.4347 55.9005 91.4486 68.098 91.4486C68.6578 91.4486 69.2176 91.4486 70.1425 91.4486V91.452ZM70.6919 76.8997C72.347 77.326 73.9812 77.8909 75.6641 78.1473C78.0389 78.5078 80.2642 77.9325 82.187 76.4318C85.0799 74.1722 85.2955 70.7378 82.7294 68.1732C82.3226 67.7642 81.9367 67.3345 81.5229 66.9324C79.621 65.0852 77.5973 65.2135 76.0466 67.3968C75.4242 68.2737 74.92 69.303 74.6418 70.3357C73.9812 72.8068 72.8651 74.9381 70.6919 76.8997ZM86.2969 57.6306C85.5146 58.8644 84.92 59.7724 84.3602 60.7012C82.4443 63.8827 82.4374 63.9035 85.3511 66.1561C85.6745 66.4057 86.3595 66.5789 86.655 66.4057C88.3762 65.411 90.0347 64.3055 91.5542 63.3351C89.7774 61.4047 88.1293 59.613 86.3004 57.6271L86.2969 57.6306Z" fill="white"/>
<path d="M59.7148 56.3899C59.6278 59.9665 56.9331 62.538 53.3691 62.4409C49.9721 62.3474 47.3504 59.5402 47.4547 56.1092C47.559 52.7336 50.3684 50.1344 53.8246 50.2175C57.1417 50.3007 59.7947 53.0767 59.7148 56.3864V56.3899ZM56.7245 56.3206C56.7001 54.6571 55.2885 53.2777 53.6125 53.2708C51.8149 53.2639 50.4588 54.6605 50.5145 56.4592C50.5666 58.1123 52.0722 59.5471 53.6716 59.4743C55.3371 59.3981 56.7488 57.939 56.7245 56.324V56.3206Z" fill="white"/>
<path d="M42.3853 25.8331C39.315 25.6875 36.9332 23.1264 37.1071 20.1633C37.2879 17.1481 39.8922 14.8296 42.9103 15.0029C45.8136 15.1692 48.1293 17.7511 48.0111 20.6866C47.8964 23.5977 45.299 25.9717 42.3818 25.8331H42.3853ZM42.5591 22.8145C43.8317 22.8284 45.0661 21.65 44.9548 20.4024C44.8331 19.0473 44.0716 18.174 42.6565 18.07C41.3352 17.9764 40.2121 19.0716 40.1843 20.3885C40.1565 21.7089 41.2274 22.8006 42.5591 22.8145Z" fill="white"/>
<path d="M28.5189 25.8296C25.4834 25.6875 23.0495 23.0744 23.2372 20.1563C23.4319 17.1516 26.0641 14.8123 29.0509 14.989C31.9507 15.1623 34.2769 17.7719 34.1239 20.6866C33.9674 23.6601 31.457 25.9648 28.5189 25.8296ZM31.0884 20.3954C31.0676 19.0924 29.9271 18.0111 28.6232 18.0596C27.2915 18.1116 26.2066 19.2379 26.3283 20.5445C26.4535 21.9411 27.3089 22.7174 28.6927 22.7972C29.9723 22.8699 31.1128 21.6708 31.0919 20.392L31.0884 20.3954Z" fill="white"/>
<path d="M61.8602 20.4232C61.9054 23.3447 59.4332 25.8539 56.516 25.8435C53.5257 25.8366 51.0535 23.4938 50.977 20.5895C50.8971 17.5848 53.3171 15.0618 56.3491 14.9925C59.3463 14.9232 61.8115 17.3526 61.8567 20.4232H61.8602ZM56.5194 18.0596C55.1738 18.0215 54.082 19.0542 54.0612 20.3885C54.0368 21.7228 55.0869 22.8318 56.4325 22.7972C57.8685 22.7625 58.637 21.8892 58.8178 20.5514C58.9882 19.3003 57.8164 18.0977 56.5194 18.0596Z" fill="white"/>
</svg>
