<svg fill="#ffffff" height="100px" width="100px" version="1.1" id="Capa_1" xmlns="http://www.w3.org/2000/svg" xmlns:xlink="http://www.w3.org/1999/xlink" viewBox="0 0 463 463" xml:space="preserve" stroke="#ffffff"><g id="SVGRepo_bgCarrier" stroke-width="0"></g><g id="SVGRepo_tracerCarrier" stroke-linecap="round" stroke-linejoin="round"></g><g id="SVGRepo_iconCarrier"> <g> <path d="M279.5,152c-52.659,0-95.5,42.841-95.5,95.5s42.841,95.5,95.5,95.5s95.5-42.841,95.5-95.5S332.159,152,279.5,152z M279.5,328c-44.388,0-80.5-36.112-80.5-80.5s36.112-80.5,80.5-80.5s80.5,36.112,80.5,80.5S323.888,328,279.5,328z"></path> <path d="M279.5,200c-26.191,0-47.5,21.309-47.5,47.5s21.309,47.5,47.5,47.5s47.5-21.309,47.5-47.5S305.691,200,279.5,200z M279.5,280c-17.92,0-32.5-14.58-32.5-32.5s14.58-32.5,32.5-32.5s32.5,14.58,32.5,32.5S297.42,280,279.5,280z"></path> <path d="M279.5,233c-7.995,0-14.5,6.505-14.5,14.5s6.505,14.5,14.5,14.5s14.5-6.505,14.5-14.5S287.495,233,279.5,233z"></path> <path d="M423.5,120h-30.111c-3.24,0-6.154-1.8-7.603-4.699l-18.733-37.467C360.318,64.367,346.781,56,331.723,56H227.277 c-15.058,0-28.595,8.367-35.33,21.835l-18.733,37.466c-1.449,2.898-4.363,4.699-7.603,4.699H111v-8.5c0-8.547-6.953-15.5-15.5-15.5 h-48c-8.547,0-15.5,6.953-15.5,15.5v9.223C13.795,124.238,0,140.284,0,159.5v208C0,389.28,17.72,407,39.5,407h384 c21.78,0,39.5-17.72,39.5-39.5v-208C463,137.72,445.28,120,423.5,120z M227.277,71h104.446c9.339,0,17.736,5.189,21.914,13.543 L355.365,88h-151.73l1.728-3.457C209.541,76.189,217.938,71,227.277,71z M47.5,111h48c0.276,0,0.5,0.224,0.5,0.5v8.5H47v-8.5 C47,111.224,47.224,111,47.5,111z M15,367.5v-208c0-13.509,10.991-24.5,24.5-24.5H112v257H39.5C25.991,392,15,381.009,15,367.5z M448,367.5c0,13.509-10.991,24.5-24.5,24.5H127V135h38.611c8.958,0,17.013-4.978,21.02-12.991L196.135,103h166.73l9.505,19.009 C376.376,130.022,384.43,135,393.389,135H423.5c13.509,0,24.5,10.991,24.5,24.5V367.5z"></path>  <path d="M87.5,152c-4.142,0-7.5,3.358-7.5,7.5v208c0,4.142,3.358,7.5,7.5,7.5s7.5-3.358,7.5-7.5v-208 C95,155.358,91.642,152,87.5,152z"></path> </g> </g></svg>