<?xml version="1.0" encoding="UTF-8"?>
<svg id="Calque_2" data-name="Calque 2" xmlns="http://www.w3.org/2000/svg" viewBox="0 0 468.65 129">
  <defs>
    <style>
      .cls-1 {
        fill: #e50913;
        stroke-width: 0px;
      }
    </style>
  </defs>
  <g id="Calque_2-2" data-name="Calque 2">
    <g>
      <path class="cls-1" d="m22.19,19.69H0V.39h65.62v19.3h-22.19v102.31l-20.78,2-.45-104.31Z"/>
      <path class="cls-1" d="m113.9.39h30.3l13.51,77.69h.39L171.61.39h30.3l.74,111.61-19.81.48-1-79.29h-.39l-14.44,79.29-17.36.52-16.83-79.8h-.39l1.22,81.8-19,1L113.9.39Z"/>
      <path class="cls-1" d="m216.74.39h56.16v19.3h-34.93v27.63h27.41v19.3h-27.41l1,45.38h-21.23L216.74.39Z"/>
      <path class="cls-1" d="m283.13.39h21.23v94.8h34.93l.36,20.82-56.52-1.52V.39Z"/>
      <path class="cls-1" d="m358.52.39h21.23l-.1,117.61-21-1-.13-116.61Z"/>
      <path class="cls-1" d="m418.65,64L395.94.39h22.39l13.28,32.61h.39L445.65,0l22.08.39-23.35,66,24.27,62.61-24-3-13.59-37.61h-.39l-15.03,33.61-21.87-2,24.87-56Z"/>
    </g>
    <path class="cls-1" d="m96.88,118.11l-21,1-.1-117.61h21.23s-.13,116.61-.13,116.61Z"/>
  </g>
</svg>