<svg xmlns="http://www.w3.org/2000/svg" viewBox="0 0 1417.32 1417.32"><g id="animation_shuttle"><g id="stars_-_copie" data-name="stars - copie"><ellipse id="star_6" cx="91.11" cy="381.31" rx="3.34" ry="3.73" style="fill:#fff;opacity:0.7000000000000001"/><ellipse id="star_5" cx="777.67" cy="287.74" rx="3.34" ry="3.73" style="fill:#fff;opacity:0.7000000000000001"/><ellipse id="star_4" cx="95.56" cy="1315.84" rx="3.34" ry="3.73" style="fill:#fff;opacity:0.7000000000000001"/><ellipse id="star_3" cx="1283.32" cy="293.93" rx="3.34" ry="3.73" style="fill:#fff;opacity:0.7000000000000001"/><ellipse id="star_2" cx="203.64" cy="61.49" rx="3.34" ry="3.73" style="fill:#fff;opacity:0.7000000000000001"/><ellipse id="star_1" cx="1367.21" cy="1381.48" rx="3.34" ry="3.73" style="fill:#fff;opacity:0.7000000000000001"/></g><g id="mojito_planet"><circle cx="660.75" cy="634.52" r="529.74" style="fill:#158035"/><path d="M282.28,277.54H529.86s49-4.69,52.74,42.66c1.3,16.32-22.5,23.66-46.24,25.14-112.23,7-265.2,8.86-265.21,8.86h0s-40.18,0-41.44,36.43,38.93,35.21,38.93,35.21H654.19s59-10.93,62.79,41.28-49,47.35-49,47.35l-121.82.12s-51.49-2.54-54,25.38,7.54,81-33.91,103S131.69,669.9,131.69,669.9,116.33,424.3,282.28,277.54Z" style="fill:#063;opacity:0.5"/><path d="M277.27,269H516.64s47.36-4.69,51,42.66c1.25,16.32-21.76,23.66-44.71,25.14-108.51,7-256.41,8.86-256.41,8.86h0s-38.86,0-40.07,36.43,37.64,35.21,37.64,35.21H636.85s57.07-10.93,60.71,41.28S650.2,506,650.2,506l-117.77.12s-49.79-2.54-52.21,25.38,7.28,81-32.79,103S131.68,661.4,131.68,661.4,116.83,415.8,277.27,269Z" style="fill:#2e602a"/><path d="M197.67,879.77H317.51s49.78-3.46,52.21,46.32S326,973.44,326,973.44l-67.66,0S212.35,911.26,197.67,879.77Z" style="fill:#063;opacity:0.5"/><path d="M188,873.69H307.8S357.58,870.24,360,920s-43.71,47.35-43.71,47.35l-67.66,0S202.64,905.19,188,873.69Z" style="fill:#2e602a"/><circle cx="697.74" cy="785.12" r="73.32" style="fill:#063;opacity:0.5"/><circle cx="835.98" cy="333.56" r="57.3" style="fill:#063;opacity:0.5"/><circle cx="865.88" cy="1052.37" r="49.41" style="fill:#063;opacity:0.5"/><circle cx="967.83" cy="555.15" r="37.77" style="fill:#063;opacity:0.5"/><circle cx="514.37" cy="1036.58" r="36.66" style="fill:#063;opacity:0.5"/><circle cx="697.74" cy="785.12" r="64.23" style="fill:#2e602a"/><circle cx="970.75" cy="555.76" r="34" style="fill:#2e602a"/><circle cx="835.98" cy="333.56" r="47.35" style="fill:#2e602a"/><circle cx="865.88" cy="1052.37" r="42.39" style="fill:#2e602a"/><circle cx="514.37" cy="1036.58" r="28.23" style="fill:#2e602a"/></g><g id="shuttle"><path d="M1084.59,1200.17a6.3,6.3,0,0,1,5.4-3.33c7.07-.19,23.2,1.91,40.78,21.39,20.31,22.5,53.14,101.33,61.89,122.84a6.28,6.28,0,0,1-3.08,8l-50.73,24.66a6.27,6.27,0,0,1-8.26-2.64c-1.28-2.33-2.93-5.36-4.85-8.92-8.6-15.9-22.68-42.37-33.38-64.49-7.44-15.37-13.24-28.64-14.41-34.79C1074.33,1244,1073.09,1222,1084.59,1200.17Z" style="fill:#9d9d9c;stroke:#1d1d1b;stroke-miterlimit:10;stroke-width:10px"/><path d="M1126.36,1363.34,1087,1383.65s-14.47-26.21-6.59-44.6,12.39-37.71,11.08-43.27S1126.36,1363.34,1126.36,1363.34Z" style="fill:#3c3c3b;stroke:#1d1d1b;stroke-miterlimit:10;stroke-width:10px"/><path d="M1189,1331.29l40.38-18.33s-11.59-27.61-30.9-32.83-37.26-13.66-40.81-18.14S1189,1331.29,1189,1331.29Z" style="fill:#3c3c3b;stroke:#1d1d1b;stroke-miterlimit:10;stroke-width:10px"/><path d="M1146.7,1372l3.78,14.21a1.32,1.32,0,0,0,1.83.86l39.59-18.3a1.1,1.1,0,0,0,.38-1.71l-11.4-13.72-33,16A2.27,2.27,0,0,0,1146.7,1372Z" style="fill:#3c3c3b;stroke:#1d1d1b;stroke-miterlimit:10;stroke-width:8px"/><circle cx="1108.11" cy="1242.82" r="18.37" style="fill:#36a9e1;stroke:#1d1d1b;stroke-miterlimit:10;stroke-width:4px;opacity:0.75"/></g></g></svg>