<svg width="395" height="544" viewBox="0 0 395 544"  fill="none" xmlns="http://www.w3.org/2000/svg">
<path d="M165.324 68.4097H238.255C249.018 68.4097 260.152 68.7808 271.658 69.5231C283.164 70.2654 294.391 71.8428 305.34 74.2553C316.288 76.6677 326.681 80.2864 336.516 85.1114C346.351 89.7507 354.888 96.0602 362.125 104.04C369.548 112.02 375.394 121.948 379.662 133.825C384.116 145.516 386.343 159.619 386.343 176.135V199.239C386.343 211.858 384.487 223.457 380.775 234.034C377.249 244.612 372.517 253.984 366.579 262.149C360.641 270.129 353.867 276.809 346.259 282.191C338.65 287.387 330.856 290.913 322.876 292.769V294.995C346.444 299.264 364.167 310.491 376.043 328.677C388.106 346.678 394.137 369.782 394.137 397.989V422.206C394.137 439.465 392.188 454.496 388.291 467.301C384.58 479.92 379.291 490.776 372.425 499.869C365.558 508.777 357.393 516.107 347.929 521.86C338.465 527.612 328.072 532.159 316.752 535.499C305.432 538.654 293.37 540.881 280.565 542.18C267.761 543.293 254.585 543.85 241.038 543.85H165.324V68.4097ZM249.946 271.892C259.596 271.892 268.41 270.778 276.39 268.551C284.37 266.139 291.143 262.52 296.71 257.695C302.463 252.685 306.824 246.282 309.793 238.488C312.948 230.509 314.526 220.951 314.526 209.817V190.332C314.526 179.197 313.412 169.362 311.185 160.826C308.958 152.289 305.247 145.052 300.051 139.113C295.04 133.175 288.36 128.721 280.009 125.752C271.844 122.597 261.823 121.02 249.946 121.02H236.028V271.892H249.946ZM256.626 493.745C266.276 493.745 274.998 492.539 282.792 490.126C290.772 487.528 297.546 483.631 303.113 478.435C308.866 473.054 313.227 466.28 316.196 458.115C319.35 449.95 320.928 440.3 320.928 429.165V392.143C320.928 381.009 319.814 371.174 317.587 362.637C315.361 353.915 311.649 346.678 306.453 340.925C301.443 334.987 294.855 330.533 286.689 327.564C278.524 324.409 268.503 322.832 256.626 322.832H236.028V493.745H256.626Z" fill="white"/>
<path d="M82.2501 56.7857H0V5.72205e-05H236.584V56.7857H154.346V543.85H82.2501V56.7857Z" fill="white"/>
</svg>
