<svg id="orbit_animation" data-name="orbit animation" xmlns="http://www.w3.org/2000/svg" viewBox="0 0 1417.32 1417.32"><g id="stars"><circle id="star_6" cx="126.6" cy="333.5" r="2.62" style="fill:#fff;opacity:0.7000000000000001"/><circle id="star_5" cx="664.66" cy="267.93" r="2.62" style="fill:#fff;opacity:0.7000000000000001"/><circle id="star_4" cx="130.09" cy="988.42" r="2.62" style="fill:#fff;opacity:0.7000000000000001"/><circle id="star_3" cx="1060.94" cy="272.27" r="2.62" style="fill:#fff;opacity:0.7000000000000001"/><circle id="star_2" cx="214.79" cy="109.38" r="2.62" style="fill:#fff;opacity:0.7000000000000001"/><circle id="star_1" cx="1126.68" cy="1034.42" r="2.62" style="fill:#fff;opacity:0.7000000000000001"/></g><g id="orbit"><circle cx="708.66" cy="708.66" r="255.2" style="fill:none;stroke:#c6c6c6;stroke-miterlimit:10;stroke-width:2px;opacity:0.5"/><circle cx="708.66" cy="708.66" r="398.24" style="fill:none;stroke:#c6c6c6;stroke-miterlimit:10;stroke-width:2px;opacity:0.5"/><circle cx="708.66" cy="708.66" r="603.88" style="fill:none;stroke:#c6c6c6;stroke-miterlimit:10;stroke-width:2px;opacity:0.5"/></g><g id="sun"><circle cx="708.66" cy="708.66" r="105.19" style="fill:#fdc321"/></g><g id="earth"><path d="M382.12,1155.62a78,78,0,1,1-78.05-78A78,78,0,0,1,382.12,1155.62Z" style="fill:#2a99d6"/><path d="M256.64,1163.31s-10.72,33.7,21.7,33.7-2.46-114.29-2.46-114.29-30.87,9.41-42.16,40.78S259.45,1146.2,256.64,1163.31Z" style="fill:#008d36"/><path d="M328.87,1179.61c-4.79,11.16-25.18,12.23-38,22.5C264.12,1223.57,303,1233.5,303,1233.5s31.93,3.74,59.41-24.69S341.94,1149.19,328.87,1179.61Z" style="fill:#008d36"/><path d="M318.43,1096.42s-8.43,30.89,28.08,29.87,19.23-18.5,19.23-18.5-12.33-16-32.39-24.54C325.48,1079.89,318.43,1096.42,318.43,1096.42Z" style="fill:#008d36"/></g><g id="planete3"><circle id="center3" cx="603.47" cy="476.69" r="30.13" style="fill:#7661a7"/><rect x="558.84" y="475.58" width="89.25" height="2.21" rx="1.11" transform="translate(105.52 -109.36) rotate(11.34)" style="fill:#4d3e6b"/></g><g id="mojito"><circle cx="317.94" cy="763.49" r="59.7" style="fill:#1a8136"/><g id="Calque_6" data-name="Calque 6"><path d="M275.28,723.26h27.9s5.53-.53,5.95,4.81c.15,1.84-2.54,2.67-5.21,2.83-12.65.79-29.89,1-29.89,1h0s-4.53,0-4.67,4.11,4.39,4,4.39,4H317.2s6.65-1.24,7.07,4.65-5.52,5.34-5.52,5.34H305s-5.8-.29-6.08,2.86.85,9.13-3.82,11.61-36.81,3-36.81,3S256.58,739.8,275.28,723.26Z" style="fill:#056734;opacity:0.5;isolation:isolate"/><path d="M274.72,722.3h27s5.33-.53,5.74,4.81c.15,1.84-2.45,2.67-5,2.84-12.23.78-28.89,1-28.89,1h0s-4.38,0-4.52,4.11,4.24,4,4.24,4h42s6.44-1.23,6.85,4.65-5.34,5.34-5.34,5.34H303.48s-5.62-.28-5.89,2.86.82,9.13-3.69,11.61-35.59,3-35.59,3S256.64,738.84,274.72,722.3Z" style="fill:#2f612b"/><path d="M265.75,791.13h13.5s5.61-.38,5.89,5.23a4.65,4.65,0,0,1-4.93,5.33h-7.62S267.4,794.68,265.75,791.13Z" style="fill:#056734;opacity:0.5;isolation:isolate"/><path d="M264.65,790.45h13.51s5.61-.39,5.88,5.22a4.65,4.65,0,0,1-4.92,5.34h-7.63S266.31,794,264.65,790.45Z" style="fill:#2f612b"/><circle cx="322.11" cy="780.47" r="8.26" style="fill:#056734;opacity:0.5;isolation:isolate"/><circle cx="337.69" cy="729.58" r="6.46" style="fill:#056734;opacity:0.5;isolation:isolate"/><circle cx="341.06" cy="810.59" r="5.57" style="fill:#056734;opacity:0.5;isolation:isolate"/><circle cx="352.55" cy="754.55" r="4.26" style="fill:#056734;opacity:0.5;isolation:isolate"/><circle cx="301.44" cy="808.81" r="4.13" style="fill:#056734;opacity:0.5;isolation:isolate"/><circle cx="322.11" cy="780.47" r="7.24" style="fill:#2f612b"/><circle cx="352.88" cy="754.62" r="3.83" style="fill:#2f612b"/><circle cx="337.69" cy="729.58" r="5.34" style="fill:#2f612b"/><circle cx="341.06" cy="810.59" r="4.78" style="fill:#2f612b"/><circle cx="301.44" cy="808.81" r="3.18" style="fill:#2f612b"/></g></g></svg>