<?xml version="1.0" encoding="UTF-8"?>
<svg id="Calque_1" data-name="Calque 1" xmlns="http://www.w3.org/2000/svg" viewBox="0 0 1080 1080">
  <path d="m554.12,791.93c-2.91-2.3-5.66-2.56-8.96-.31-2.96,2.01-6.45,3.24-9.7,4.82l-.65-1.2c4.28-2.6,8.56-5.21,13.1-7.97-3.56-5.79-6.94-10.56-14.2-5.34.18-.38.25-.95.55-1.1,5.83-2.92,6.07-6.2.61-9.94-.67-.46-1.75-.59-2.59-.48-2.28.29-4.53.79-6.79,1.21-.12-.41-.25-.81-.37-1.22.71-.52,1.34-1.18,2.13-1.52,3.36-1.44,4.93-2.97,2.9-7.14-1.32-2.69-.57-6.4-.76-10-5.28.52-10.68,1.08-16.07,1.56-8.86.8-17.71,1.82-26.59,2.25-12.68.62-23.97,4.95-34.31,11.97-7.57,5.14-14.85,10.69-22.34,15.94-1.51,1.06-3.28,1.85-5.05,2.41-4.86,1.55-5.61,2.21-7.4,7.78,1.56.11,3.03.21,4.51.32.73,1.27,1.46,2.53,1.99,3.46-8.03,12.35-15.97,24.58-23.92,36.8-.31-.11-.62-.21-.94-.32,4.32-10.34,8.63-20.67,13.29-31.83-1.47.73-2.28.85-2.48,1.27-5.41,11.02-11.01,21.96-16,33.17-2.29,5.15-.53,10.47,1.79,15.44.46.98.48,2.17.7,3.26-.61.24-1.22.49-1.83.73-4.3-9.13-8.6-18.26-13.29-28.24-.61,3.94-1.08,6.95-1.61,10.41-3.78-2.83-4.37-6.35-3.49-10.15,6.02-25.98,16.2-49.5,37.15-67.46,9.54-8.17,19.02-16.03,31.31-19.28,6.78-1.79,13.88-2.38,20.78-3.78,20.44-4.15,41.07-7.66,61.18-13.07,7.39-1.99,13.82-8.21,20.2-13.13,12.66-9.76,24.38-20.86,37.63-29.68,10.47-6.97,22.87-8.74,35.69-5.16,8.18,2.28,13.23,16.89,8.59,23.98-1.28,1.96-4.25,2.73-5.89,4.54-2.34,2.59-4.91,5.39-6.02,8.57-1.21,3.51,1.54,5.53,4.69,4.1,16.39-7.46,32.84-14.8,49.14-22.45,6.06-2.84,11.85-6.27,17.63-9.66,7.78-4.57,16.32-6.52,25.09-7.78,1.35-.19,2.78.13,4.63.24-.59-1.03-1.1-1.91-2.12-3.68,4.27-1.86,8.38-3.64,12.49-5.43.23.37.45.73.68,1.1-.57.79-1.15,1.59-1.72,2.38,9.12-5.14,18.58-5.86,28.64-2.12-24.67,17.28-51.11,31.32-77.17,45.99.22.51.44,1.02.65,1.53,1.39-.53,2.84-.94,4.16-1.6,11.79-5.85,23.7-11.49,35.29-17.7,7.44-3.99,14.37-8.9,21.6-13.29,7.91-4.8,15.86-9.55,23.9-14.12,2.6-1.48,5.56-2.34,8.74-3.64,1.1,5.16-.03,8.51-3.57,10.73-17.97,11.24-36.09,22.24-53.96,33.64-7.08,4.52-13.4,10.24-20.51,14.71-11.48,7.22-23.3,13.92-35.05,20.71-7.03,4.06-14.35,7.63-21.21,11.95-2.05,1.29-4.12,4.38-4.08,6.61.03,1.8,2.94,4.48,5.06,5.11,3.82,1.13,8.01,1.41,12.03,1.34,7.08-.12,13.22,2.07,18.59,6.48,3.24,2.66,5.99,5.66,4,10.44-.27.66-.26,1.68.06,2.31,3.28,6.54-.85,10.66-4.77,14.8-8.74,9.22-19.18,12.87-32.18,13.36-23.34.88-43.17,10.32-56.69,30.37-6.65,9.85-12.74,20.08-19.51,29.84-2.69,3.88-6.4,7.09-9.86,10.38-2.03,1.94-4.96,3.07-6.64,5.23-7.48,9.6-17.9,13.39-29.23,15.79-6.3,1.34-12.48,3.28-18.77,4.68-3.65.81-7.42,1.52-11.13,1.52-6.1,0-12.2-.62-18.8-2.1,6.93-3.29,13.75-6.88,20.83-9.81,11.9-4.93,24.95-7.86,35.72-14.53,14.4-8.93,29.66-17.36,38.36-33.7,4.16-7.81,11.52-14.04,17.92-20.5,5.94-5.99,12.34-11.58,18.88-16.92,8.31-6.79,18.44-9.46,28.73-11.63,1.16-.24,2.14-1.41,3.14-2.24.71-.59,1.2-1.49,1.97-1.95,3.51-2.1,7.08-4.08,10.21-5.88-.22-1.1-1.14-2.78-.67-3.81,1.39-3.01.22-4.67-2.43-5.4-4.9-1.36-9.84-2.63-14.85-3.48-3.53-.6-7.21-.27-10.79-.65-6.41-.68-9.52-4.66-9.21-13.04,1.36,2.05,2.38,3.01,2.69,4.17,1.11,4.09,3.7,5.99,7.87,6.08,2.82.06,5.64.62,8.44.48,9.21-.45,17.3,1.93,24.01,9.15.79-1.63,1.74-2.92,2.07-4.36,1.25-5.33-2.72-8.67-9.48-8.25-4.54.29-9.09.59-13.64.6-6.9.01-12.69-4.37-14.89-10.94-.44-1.33-.94-2.63-1.72-4.82-5.61,3.06-11.05,5.97-16.4,9.04-.62.36-.83,1.6-1.03,2.47-.57,2.51-1.6,3.47-4.34,2.27-1.1-.48-2.99,0-4.17.66-10.34,5.82-20.61,11.78-31.64,18.12.66-2.11,1.05-3.34,1.44-4.58,3.52-1.87,7.15-3.57,10.54-5.64,5.96-3.64,11.78-7.51,18.48-11.81-2.13-1.01-3.92-2.51-4.63-2.1-6.79,3.86-13.41,8.04-20.04,12.17-.31.2-.6.89-.5,1.24,1.04,3.5-2.18,4.37-3.78,6.23Zm15.92-56.07c1.1,1.34,2.35,3.15,3.91,4.65.62.6,2.17,1.02,2.85.66,5.91-3.08,11.71-6.36,17.51-9.56-.32-1.3-.55-2.05-.67-2.82-.58-3.76-1.86-7.92-5.92-7.95-2.86-.02-6.14,2.46-8.5,4.62-3.46,3.17-6.28,7.05-9.17,10.4Zm-32.83,14.82c1.13,1.62,2.43,3.29,3.51,5.09,1.88,3.13,4.02,3.81,7.31,1.74,3.83-2.41,8.04-4.23,11.89-6.62.93-.58,1.6-2.44,1.49-3.63-.17-1.93-1.07-3.79-1.58-5.41-7.66,2.99-15.04,5.87-22.63,8.83Zm9.37,12.75c1.68,2.51,2.95,4.39,4.37,6.5,5.99-3.61,11.7-7.05,17.7-10.66-1.5-2.12-2.71-3.84-4.14-5.86-6.16,3.45-11.86,6.63-17.93,10.03Zm76.27-15.95c.32.54.64,1.09.96,1.63,17.62-9.53,35.25-19.06,52.87-28.59-.45-.85-.91-1.7-1.36-2.55-17.54,9.73-35,19.64-52.47,29.51Zm-50.37,17.05c-6.64,3.33-12.88,6.47-19.53,9.8,1.15,2.3,2.16,4.3,3.24,6.46,6.79-4.18,13.12-8.08,19.64-12.1-1.2-1.49-2.17-2.69-3.35-4.16Zm19.39,3.02c.53.31,1.05.62,1.58.94,7.25-5.36,17.46-6.68,21.9-17.05-7.45,4.18-14.41,7.96-21.2,12.04-1.16.7-1.54,2.68-2.28,4.07Zm57.03,35.44c5.76-.52,10.12-5.44,11.18-13.5.26-1.98-1.34-4.33-2.45-6.3-.32-.57-1.92-.43-2.93-.61-.07.96-.51,2.09-.16,2.87,2.07,4.55.3,8.45-1.89,12.25-1.06,1.85-2.47,3.5-3.76,5.3Zm.73-88.48c-.29-.52-.58-1.05-.87-1.57-7.49,3.96-15.02,7.85-22.41,11.99-.53.29-.07,2.35-.07,4.68,8.59-5.56,15.97-10.33,23.34-15.1Zm-55.27,30c-.17-.48-.34-.96-.5-1.44-4.8,1.46-9.59,2.92-15.49,4.71,1.85.93,3.91,2.83,5.09,2.39,3.81-1.42,7.29-3.71,10.9-5.66Zm5.78,8.25c-.24-.44-.48-.89-.72-1.33-4.1,1.86-8.21,3.71-12.71,5.75.95,1.2,1.83,2.32,2.61,3.29,3.9-2.78,7.36-5.24,10.82-7.71Zm21.67-24.21c-.5-.22-1-.45-1.5-.67-3.2,1.77-6.4,3.53-10.62,5.87,5.12,2.6,7.84-.98,10.99-1.86.64-.18.77-2.18,1.13-3.34Zm-24.36,11.48c4.9,1.81,9.12-.75,8.86-4.85-3.13,1.71-5.99,3.28-8.86,4.85Zm33.58-6.02l.89,1.19c4.03-2.22,8.05-4.45,12.08-6.67-.23-.42-.47-.83-.7-1.25-4.09,2.24-8.18,4.49-12.27,6.73Zm-27.68,15.03c.34.54.67,1.09,1.01,1.63,2.76-1.62,5.52-3.24,8.27-4.87-.28-.49-.57-.98-.85-1.47l-8.43,4.71Z" style="stroke-width: 0px;"/>
  <path d="m506.88,594.2v-154.78c1.15-.14,2.34-.41,3.52-.41,21.11.05,42.25-.37,63.33.47,8.63.34,17.5,2.49,25.63,5.52,12.55,4.68,18.96,14.68,19.17,28.18.2,13.39.07,26.79.08,40.18,0,15.88.01,31.75,0,47.63-.01,20.98-9.47,32.26-30.41,32.99-26.89.94-53.84.23-81.32.23Zm47.91-128.97v102.38c9.32,2.02,15.42-2.94,15.45-12.62.08-26.46.05-52.92.01-79.38,0-6.2-3.7-10.04-9.79-10.37-1.71-.09-3.43-.01-5.67-.01Z" style="stroke-width: 0px;"/>
  <path d="m645.89,438.39c15.8-.35,31.09-.48,45.96,2.25-.75,1.05-1.29,1.82-1.84,2.58.99.51,1.98,1.03,3.15,1.63,0,38.27,0,76.7,0,115.14,0,6.16,2.01,8.75,6.75,8.64,3.75-.08,6.36-1.78,6.97-5.69.29-1.85.28-3.76.28-5.64.09-36.23.15-72.46.23-108.69.01-6.49,2.15-10.11,6.19-10.22,2.42-.06,4.86.36,7.29.4,9.05.17,18.11.34,27.16.4,6.94.04,6.87-.04,6.73,6.83-.11,5.76-.02,11.53-.02,17.69h-7.18c0,.28,0,.55-.01.83,2.33.64,4.66,1.29,7.14,1.97,0,31.13.22,62.48-.12,93.82-.11,10.68-6.05,18.65-14.91,24.37-8.23,5.31-17.34,8.25-27.01,9.17-14.71,1.4-29.3.95-43.13-5.06-15.13-6.58-23.73-17.88-23.79-34.72-.14-37.65-.09-75.3-.11-112.95,0-.76.16-1.53.29-2.73Zm28.38,22.27c0,.38,0,.76,0,1.15h17.05c0-.38-.02-.76-.03-1.15h-17.03Z" style="stroke-width: 0px;"/>
  <path d="m407.96,380.42c-.34.66-1.43,1.77-1.23,2.53,1.28,4.78,2.75,9.51,4.4,14.17.27.75,1.85.95,2.6,1.64,1.03.94,1.84,2.11,3.2,3.71-13.26,1.78-55.51.87-59.98-1.61,2.51-2.26,4.49-5.24,7.16-6.14,3.08-1.04,6.78-.24,10.24-.74-4.96-.32-9.92-.64-15.42-.99v-18.78c-5.71,0-10.87-.15-16.01.14-.88.05-2.25,1.9-2.39,3.05-.84,6.71-1.37,13.47-2.05,20.2-.17,1.69-.49,3.37-.77,5.24h-50.9c8.22-52.61,16.39-104.89,24.63-157.62,1.83,0,3.37,0,4.9,0,20.32,0,40.64.08,60.96-.08,3.73-.03,5.31.64,6.01,4.87,6.69,40.03,13.67,80.01,20.73,119.97.61,3.45,2.47,6.68,3.9,10.43Zm-58.74-96.3l-.94.11c-2.71,20.53-5.41,41.07-8.16,61.91h15.61c-2.19-20.89-4.35-41.46-6.51-62.03Z" style="stroke-width: 0px;"/>
  <path d="m695.92,323.9c0-11.02,0-22.04,0-33.07,0-25.14,11.5-39.61,36.3-44.78,15.16-3.16,30.39-2.89,45.2,2.15,18.59,6.33,28.25,19.98,28.27,39.57.03,22.99,0,45.98,0,68.97,0,25.63-11.21,39.76-36.49,45.05-14.03,2.94-28.18,2.7-42.06-1.25-20.49-5.84-31.17-20.03-31.22-41.21-.03-11.81,0-23.62,0-35.43Zm62.62-.94c0-15.13.04-30.26-.02-45.39-.02-5.25-1.91-7.38-6.3-7.67-4.9-.32-8.31,2.24-9.04,6.99-.31,2.01-.33,4.08-.33,6.13-.02,27.42-.02,54.85,0,82.27,0,2.2.12,4.41.38,6.6.47,3.89,2.8,5.78,6.68,5.94,5.23.22,8.57-3.26,8.61-9.48.09-15.13.03-30.26.02-45.39Z" style="stroke-width: 0px;"/>
  <path d="m127.82,716.56c4.84,0,8.34-.33,11.71.16,1.43.21,3.06,1.9,3.83,3.33,7.35,13.66,14.4,27.49,21.81,41.12,9.25,17.01,20.02,33.08,32.3,48.02,11.3,13.76,22.46,27.82,35.26,40.1,16.62,15.95,34.33,30.88,52.46,45.11,12.96,10.16,27.05,19.03,41.27,27.39,14.14,8.31,28.73,15.91,44.21,21.67,11.08,4.12,21.77,9.26,32.8,13.51,5.79,2.23,11.94,3.55,17.94,5.22,7.8,2.16,15.57,4.44,23.44,6.34,8.35,2.01,16.72,4.21,25.21,5.31,17.74,2.29,35.53,4.72,53.38,5.59,25.3,1.22,50.6.8,75.9-2.35,17.76-2.21,35.26-5.18,52.49-9.84,14.53-3.93,29.19-7.55,43.39-12.49,12.76-4.44,24.86-10.74,37.44-15.75,19.33-7.7,36.65-18.83,54.17-29.86,23.51-14.8,45.26-31.81,65.39-50.67,14.58-13.66,27.59-29.09,40.47-44.43,16.05-19.12,30.12-39.75,41.85-61.85,5.67-10.68,10.81-21.64,16.4-32.37.74-1.42,2.67-2.9,4.21-3.1,3.59-.46,7.27-.15,11.44-.15-76.71,179.12-261.91,291.53-457.39,275.12-104.47-8.77-196.02-49.51-273.06-121.06-46.64-43.32-83.28-93.96-108.32-154.06Z" style="stroke-width: 0px;"/>
  <path d="m967.01,354.08c-5,0-8.92.33-12.72-.17-1.42-.19-3-2.1-3.79-3.6-3.9-7.38-7.48-14.95-11.35-22.35-3.89-7.44-7.68-14.97-12.08-22.11-7.04-11.42-13.9-23.05-22.01-33.69-15.08-19.75-31.09-38.75-48.97-56.15-13.07-12.73-26.78-24.59-41.62-35.17-11.45-8.16-22.59-16.81-34.42-24.37-9.94-6.35-20.63-11.56-31.1-17.08-8.85-4.66-17.69-9.42-26.83-13.44-8.75-3.85-17.85-6.94-26.88-10.11-7.93-2.79-15.95-5.33-23.99-7.79-7.27-2.22-14.54-4.51-21.94-6.19-11.27-2.55-22.58-5.13-34-6.72-12.28-1.71-24.75-1.99-37.07-3.42-25.53-2.97-51.01-1.02-76.42,1.06-13.52,1.11-26.91,4.03-40.33,6.31-7.85,1.33-15.71,2.7-23.43,4.59-7.55,1.85-14.95,4.35-22.4,6.61-5.9,1.79-11.88,3.41-17.65,5.56-7.21,2.68-14.31,5.67-21.34,8.8-8.61,3.84-17.16,7.84-25.61,12.02-8.62,4.27-17.47,8.24-25.55,13.39-16.77,10.69-33.4,21.64-49.52,33.27-22.81,16.45-43.1,35.87-61.3,57.21-13.78,16.15-26.44,33.29-38.97,50.45-7.11,9.74-13.34,20.2-19.21,30.75-4.58,8.25-8.54,16.95-11.72,25.84-1.91,5.34-4.58,7.24-9.85,6.59-1.97-.24-4-.04-6.81-.04,1.91-5.21,3.19-9.85,5.26-14.1,5.03-10.36,9.97-20.81,15.8-30.72,7.45-12.67,15.19-25.25,23.8-37.14,15.86-21.9,33.1-42.64,52.47-61.7,16.14-15.88,33.34-30.4,51.39-43.88,19.92-14.88,40.96-28.13,63.45-38.91,11.01-5.28,21.84-10.99,33.15-15.53,11.86-4.77,24.15-8.48,36.32-12.44,8.85-2.87,17.74-5.69,26.76-7.96,9.68-2.44,19.5-4.27,29.29-6.24,6.14-1.23,12.29-2.47,18.5-3.23,11.83-1.45,23.69-3.4,35.57-3.63,22.2-.42,44.46-.41,66.63.71,13.4.67,26.71,3.62,40.02,5.8,8.95,1.47,17.92,3.03,26.71,5.23,10.24,2.57,20.32,5.81,30.43,8.9,7.12,2.18,14.27,4.31,21.23,6.95,9.49,3.6,18.96,7.32,28.14,11.62,12.85,6.02,25.68,12.17,38.05,19.09,16.85,9.42,33.39,19.38,48.26,31.9,9.47,7.97,20.07,14.67,29.15,23.03,18.64,17.16,37.2,34.5,52.59,54.81,9.04,11.93,18.71,23.48,26.74,36.06,9.88,15.47,18.45,31.79,27.36,47.87,4.01,7.23,7.47,14.77,11.82,23.44Z" style="stroke-width: 0px;"/>
  <path d="m664.95,292.57c-3.18-.73-6.69,1.97-7.91-2.02-.98.6-2.08,1.87-3.19,1.88-11,.15-22,.09-33.69.09,0-3.61.11-6.85-.03-10.09-.12-2.82-.27-5.68-.87-8.42-.67-3.07-2.33-5.65-5.94-5.77-3.52-.12-5.91,1.62-7.29,4.91-3.3,7.85-.75,18.48,6.33,23.36,4.76,3.28,10.12,5.7,15.23,8.47,3.73,2.02,7.54,3.92,11.23,6.02,4.77,2.71,10.56,4.83,8.69,12.37.23-1.74.46-3.48.71-5.4,7.28,2.81,10.89,7.5,8.54,16.07,5.95-2.27,8.39.23,8.94,5.05,1.25,10.91,3.43,21.87,3.2,32.76-.21,10.13-5.48,19.11-14.98,23.67-25.86,12.4-51.91,12.53-77.55-.87-10.35-5.41-14.53-15.04-15.41-26.05-.6-7.46-.11-15.01-.11-22.73h44.87c0,7.95-.02,15.63,0,23.32.02,6.74,1.82,9,7.3,9.25,5.41.25,8.62-3.08,9.32-9.07,1.61-13.82-2.54-24.47-15.91-30.48-2.81-1.26-5.36-3.1-7.87-5.47h12.37c-12.8,1.38-23.44-3.71-33.56-10.71-11.17-7.72-15.55-18.63-17.89-31.77-2.91-16.3-1.95-32.53-2.34-48.81-.04-1.63,0-3.27,0-4.9.49,0,.98-.02,1.47-.03v42.08c.3,0,.6.01.91.02.2-1.37.39-2.74.61-4.1,2.87-17.53,13.36-27.65,30.55-30.91,17.43-3.3,34.8-3.35,51.7,2.81,16.52,6.02,22.58,14.94,22.59,32.38,0,4.21,0,8.43,0,13.12Z" style="stroke-width: 0px;"/>
  <path d="m429.23,345.81h45.04c0,7.87,0,15.54,0,23.2,0,6.92,1.95,9.33,7.62,9.43,5.31.09,8.62-3.33,8.94-9.42.15-2.83.08-5.67.04-8.5-.1-8.07-3.68-14.17-10.54-18.34-4.42-2.7-8.9-5.3-14.52-8.65h13.47c0-.32.01-.63.02-.95-2.44,0-4.87,0-7.31,0-17.57,0-37.35-14.97-41.98-31.81-.62-2.27-.96-4.62-1.48-6.92-3.91-17.35-2.75-34.98-2.84-52.54,0-1.41.23-2.83.35-4.25.51.03,1.03.06,1.54.09,0,6.94,0,13.89,0,20.83s0,14.17,0,21.25l.37.04c.35-1.76.74-3.52,1.05-5.29,2.69-15.7,12-25.4,27.3-29,18.59-4.38,37.22-4.35,55.33,2.36,12.86,4.77,22.91,13.17,21.92,31.92-.22,4.21-.03,8.45-.03,13.12-3.11-.4-6.38,1.95-7.99-1.84-1.03.59-2.23,1.86-3.45,1.88-9.92.16-19.85.1-29.78.09-.93,0-1.86-.08-3.57-.15,0-3.17.11-6.25-.03-9.31-.13-2.98-.28-5.99-.85-8.9-.61-3.08-2.22-5.7-5.81-5.91-3.76-.22-6.2,1.69-7.57,5.18-3.31,8.42-.32,18.92,7.42,23.86,5.15,3.29,10.79,5.81,16.21,8.69,3.33,1.78,6.66,3.56,9.96,5.4,4.6,2.57,9.82,4.77,8.02,11.83.22-1.67.44-3.34.69-5.24,7.15,2.78,10.95,7.31,8.51,16.06,6.59-2.46,8.61.86,9.14,5.83,1.16,10.76,3.36,21.57,2.99,32.29-.37,10.72-6.26,19.73-16.41,24.25-24.93,11.08-50.01,11.35-74.73-.9-11.53-5.71-16.01-16.06-16.92-28.14-.53-7.02-.1-14.12-.1-21.54Zm84.44-80.93c-.22.02-.45.04-.67.06v13.29c.22-.01.45-.02.67-.03v-13.32Z" style="stroke-width: 0px;"/>
  <path d="m924.91,368.53c-4.14,0-7.84.12-11.51-.09-.85-.05-1.96-1.08-2.4-1.94-5.14-10.06-9.8-20.38-15.32-30.21-5.76-10.24-11.97-20.27-18.63-29.95-7.64-11.11-15.59-22.05-24.15-32.46-7.09-8.61-15.05-16.56-23.02-24.39-9.31-9.14-18.77-18.16-28.69-26.62-8.47-7.23-17.31-14.15-26.64-20.22-14.39-9.36-29.01-18.46-44.12-26.57-12.86-6.9-26.34-12.81-39.94-18.14-12.08-4.74-24.55-8.73-37.13-11.91-15.31-3.87-30.92-6.55-46.41-9.72-30.65-6.26-61.65-5.58-92.57-3.75-14.19.84-28.27,3.88-42.33,6.37-11.38,2.02-22.74,4.3-33.91,7.22-9.04,2.36-17.83,5.72-26.65,8.86-6.08,2.16-12.18,4.39-18.01,7.15-13.92,6.59-27.94,13.06-41.45,20.43-12.46,6.8-24.57,14.35-36.36,22.26-8.47,5.69-16.29,12.37-24.19,18.87-20.91,17.19-39.96,36.37-56.6,57.64-12.37,15.83-23.42,32.75-34.24,49.71-6.77,10.61-13.1,21.67-16.54,34.02-.95,3.39-3.59,3.9-6.67,3.68-2.18-.15-4.38-.03-7.6-.03,1.13-3.37,1.71-6.35,3.06-8.94,7.5-14.42,14.42-29.22,23.02-42.96,9.18-14.66,19.36-28.81,30.31-42.21,11.91-14.58,24.63-28.61,38.04-41.82,17.67-17.42,37.1-32.96,58.1-46.21,14.03-8.86,28.91-16.42,43.65-24.09,10.89-5.67,21.96-11.13,33.36-15.65,10.09-4,20.72-6.66,31.15-9.78,6.12-1.83,12.26-3.68,18.5-5.04,11.58-2.53,23.18-5.06,34.88-6.92,12.08-1.92,24.26-3.9,36.45-4.32,19.34-.68,38.73-.54,58.07.14,10.46.37,20.88,2.42,31.27,4.03,9.89,1.53,19.81,3.04,29.53,5.36,10.4,2.48,20.64,5.7,30.85,8.94,11.51,3.66,23.07,7.28,34.3,11.71,9.18,3.62,18.05,8.12,26.78,12.76,12.6,6.71,25.35,13.28,37.3,21.06,15.42,10.03,30.84,20.16,44.06,33.26,12.15,12.03,25.47,22.91,37.2,35.32,15.61,16.5,29.75,34.36,41.79,53.68,8.32,13.34,15.91,27.16,23.54,40.92,3.5,6.31,6.29,13.01,9.89,20.56Z" style="stroke-width: 0px;"/>
  <path d="m167,698.06c4.15,0,7.56-.2,10.93.12,1.04.1,2.3,1.44,2.86,2.52,9.27,18.13,17.46,36.86,29.46,53.47,8.29,11.48,16.1,23.42,25.39,34.05,13.57,15.54,27.61,30.79,42.68,44.86,12.31,11.49,25.98,21.68,39.84,31.31,14.02,9.73,28.66,18.71,43.68,26.79,12.75,6.86,26.24,12.5,39.76,17.74,13.43,5.21,27.13,9.9,41.04,13.6,12.55,3.34,25.56,4.9,38.32,7.46,28.12,5.65,56.59,6.18,85,4.64,18.42-1,36.75-4.2,55.02-7.02,11.26-1.74,22.45-4.2,33.47-7.13,10.1-2.68,20.16-5.81,29.8-9.81,14.87-6.17,29.56-12.84,43.95-20.05,16.13-8.09,31.7-17.17,46.35-27.86,15.99-11.67,31.99-23.31,45.82-37.54,12.69-13.06,25.53-26.07,37.11-40.08,10.32-12.49,19.83-25.85,28.18-39.73,8.4-13.95,15-29,22.23-43.64,1.25-2.54,2.55-4.1,5.6-3.83,2.46.22,4.96.04,8.56.04-2.11,5.56-3.66,10.4-5.77,14.98-2.84,6.18-5.98,12.23-9.25,18.2-3.39,6.19-6.92,12.32-10.72,18.26-5.02,7.85-10.05,15.73-15.64,23.18-8.89,11.85-17.71,23.84-27.53,34.91-18,20.28-37.82,38.72-59.46,55.13-17.22,13.06-35.17,24.97-54.63,34.47-13.1,6.39-26.42,12.34-39.42,18.9-12.44,6.28-25.65,10.1-39.05,13.49-15.12,3.82-30.2,7.84-45.44,11.12-8.09,1.74-16.47,2.33-24.75,2.99-13.78,1.09-27.58,2.45-41.38,2.54-15.24.1-30.51-.75-45.71-1.85-10.78-.78-21.59-2.06-32.17-4.2-13.88-2.81-27.68-6.24-41.28-10.23-14.26-4.19-28.39-8.94-42.27-14.25-9.12-3.49-17.84-8.13-26.47-12.74-12.64-6.75-25.29-13.54-37.47-21.06-9.95-6.14-19.48-13.03-28.74-20.18-19.48-15.04-37.68-31.58-54.05-49.95-10.83-12.16-21.44-24.69-30.66-38.09-10.94-15.91-20.49-32.81-30.21-49.53-4.64-7.97-8.29-16.52-12.97-25.96Z" style="stroke-width: 0px;"/>
  <path d="m309.49,438.61h7.03v57.96c.32.08.64.17.95.25.68-1.45,1.42-2.88,2.02-4.37,6.7-16.63,13.46-33.23,19.97-49.93,1.24-3.18,2.87-4.18,6.22-4.14,14.17.19,28.34.08,43.29.08-.76,2-1.29,3.55-1.92,5.06-8.66,20.59-17.25,41.2-26.07,61.71-1.41,3.29-1.52,6.03-.24,9.38,9.55,24.96,18.93,49.98,28.34,74.99.65,1.72,1.2,3.47,1.93,5.57h-53.09c-6.64-20.53-13.33-41.22-20.02-61.91l-.93.13v61.66h-7.84v-5.6c0-43.96.03-87.91-.08-131.87,0-2.58-1.65-5.16-1.61-7.73.04-2.7,1.23-5.38,1.83-8.09.2-.9.14-1.86.22-3.17Z" style="stroke-width: 0px;"/>
  <path d="m822.88,440.21v5.4c0,33.26-.02,66.51.02,99.77,0,3.8.42,7.49-4.08,9.48-1.31.58-2,2.56-2.95,3.88,6.6,4.95,13.66,4.11,20.7,4.05,2.39-.02,6.04-2.29,7.26,2.29.04.16,1.72.11,2.5-.18,1.91-.73,3.74-1.67,6.32-2.85v31.1h-75.15c-.73-2.81-2.07-5.86-2.17-8.95-.12-3.58,1.04-7.18,1.26-10.79.1-1.67-.95-3.38-1.04-5.1-.13-2.57.03-5.18.25-7.75.22-2.6.98-5.18.94-7.76-.06-3.39-1.01-6.77-1.02-10.15-.08-32.31-.05-64.62-.05-96.93,0-1.71,0-3.41,0-5.48h47.21Z" style="stroke-width: 0px;"/>
  <path d="m413.36,527.64c1.17-.25,2.35-.49,3.68-.77-4.81-5.09-4.8-9.94-.28-15.51-.8-.39-2.02-.99-3.48-1.71,0-16.88,0-33.88,0-50.88,0-5.53-.11-11.06.19-16.57.06-1.1,1.77-3.03,2.73-3.04,16.17-.19,32.34-.14,48.73-.14v154.71h-49.19c.74-1.09,1.37-1.78,1.27-1.91-4.83-6.35-1.96-13.76-2.71-20.64-.56-5.09.24-10.33.33-15.5.08-4.85.17-9.7-.04-14.54-.09-2.18-.9-4.33-1.46-6.89.78-.15,1.83-.19,2.72-.59.52-.24.84-1.04,1.07-1.65.04-.11-.77-.55-1.2-.83-1.05-.68-2.1-1.36-3.15-2.04.26-.5.52-1,.78-1.49Z" style="stroke-width: 0px;"/>
  <path d="m1013.89,659.65c-2.46.9-4.64,2.4-6.82,2.4-44.75.11-89.51.03-134.27.04-55.29,0-110.59.07-165.88.07-210.22.01-420.45,0-630.67.01-.47,0-.95-.03-1.42.01-2.92.25-5.77-.42-5.85-3.71-.07-3.11,2.85-3.64,5.47-3.78,1.1-.06,2.21-.03,3.31-.03,308.4,0,616.81,0,925.21,0,3.97,0,8.24-.59,10.92,4.97Z" style="stroke-width: 0px;"/>
  <path d="m266.05,438.75h37.4v156.29h-37.4v-156.29Z" style="stroke-width: 0px;"/>
  <path d="m477.63,839.59c-2.45-.7-4.87-1.4-8.78-2.52,2.26,2.71,3.61,4.34,5.08,6.1-7.02,1.55-14.83-1.82-18.9-7.62-9.55-13.58-7.67-27.48-2.18-35.8,3.08-4.67,7.05-11.38,15.77-10.38-2.09,3.47-.9,5.58.67,8.54,1.82,3.41,1.85,8.24,1.35,12.3-.75,6.18-.66,11.98,2.05,17.67,1.71,3.6,3.11,7.34,4.94,11.71Z" style="stroke-width: 0px;"/>
  <path d="m461.59,879.44c7.5-5.69,15.01-11.38,23.11-17.53-.3,1.85-.6,3.66-1,6.13,3.26-1.1,6.34-2.14,9.41-3.18.18.29.35.58.53.87-8.41,6.14-16.82,12.28-25.23,18.43-.27-.28-.55-.56-.82-.84.21-1.09.42-2.18.71-3.69-2.26.47-4.08.86-5.91,1.24-.27-.48-.54-.96-.81-1.44Z" style="stroke-width: 0px;"/>
  <path d="m463.16,919.81c-18.94-2.56-36.54-9.72-54.11-17.1,1.16.28,2.31.58,3.47.85,1.38.32,2.76.61,4.14.92,11.59,2.62,23.25,4.94,34.72,8.01,4.26,1.14,8.05,4.04,12.05,6.14-.09.4-.18.79-.27,1.19Z" style="stroke-width: 0px;"/>
  <path d="m487.94,849.9c-5.34,4.06-10.66,8.15-16.03,12.16-.85.63-2.14.74-2.86,1.46-4.12,4.13-8.12,8.36-12.2,12.61-4.96-3.85-5.19-4.34-.13-7.81,9.39-6.44,19.05-12.5,28.62-18.68.58-.37,1.32-.5,1.98-.74.2.33.41.67.61,1Z" style="stroke-width: 0px;"/>
  <path d="m632.03,799.93c-2.72,1.01-5.39,2.22-8.18,2.99-11.25,3.11-23.15,4.26-33.13,11.26.44-5.79,30.86-17.6,40.7-15.9.2.55.41,1.1.61,1.65Z" style="stroke-width: 0px;"/>
  <path d="m551.51,831.81c-.94-5.76-1.8-11.08-2.7-16.58,4.4-1.74,6.37,1.09,7.64,4.08,1.73,4.07-.89,10.99-4.94,12.5Z" style="stroke-width: 0px;"/>
  <path d="m515.06,852.52c3.05,7.74,9.49,7.21,16.27,6.57-3.54,4.47-7.33,5.48-11.62,3.36-3.73-1.84-5.9-4.74-4.65-9.94Z" style="stroke-width: 0px;"/>
  <path d="m533.82,850.91c-2.81,1.46-5.56,3.96-8.44,4.12-4.11.22-5.94-3.57-7.24-7.65,4.78,4.06,9.96,2.71,15.15,1.35.18.73.36,1.46.54,2.18Z" style="stroke-width: 0px;"/>
  <path d="m534.23,836.56c-4.46,5.4-11.97,4.34-14.25-1.81-.27-.73-.28-1.99.17-2.42.42-.41,2.14-.38,2.34-.01,2.14,3.89,5.4,4.16,9.23,3.34.72-.15,1.62.56,2.52.91Z" style="stroke-width: 0px;"/>
  <path d="m533.03,830.66c-.14,2.43-2.08,3.02-4.99,2.32-4.31-1.05-4.44-4.01-3.77-7.59,2.86,1.72,5.49,3.3,8.76,5.27Z" style="stroke-width: 0px;"/>
  <path d="m451.78,879.79c2.98.09,5.22,1.32,5.13,4.74-.03.96-1.58,1.88-2.43,2.82-1.47-2.07-2.94-4.14-4.4-6.21.57-.45,1.14-.9,1.71-1.35Z" style="stroke-width: 0px;"/>
  <path d="m629.79,786.69c1.62,1.86,2.6,2.98,3.58,4.1-1.31,1.09-2.5,2.79-3.96,3.05-.88.16-2.95-1.85-3.03-3-.08-1.06,1.76-2.27,3.41-4.16Z" style="stroke-width: 0px;"/>
</svg>